<?xml version="1.0" encoding="utf-8"?>
<!-- Generator: Adobe Illustrator 23.0.3, SVG Export Plug-In . SVG Version: 6.00 Build 0)  -->
<svg version="1.1" id="Layer_1" xmlns="http://www.w3.org/2000/svg" xmlns:xlink="http://www.w3.org/1999/xlink" x="0px" y="0px"
	 viewBox="0 0 32 32" style="enable-background:new 0 0 32 32;" xml:space="preserve">
<g>
	<g>
		<path d="M12,14c-3.859375,0-7-3.1401367-7-7s3.140625-7,7-7s7,3.1401367,7,7S15.859375,14,12,14z M12,2
			C9.2431641,2,7,4.2431641,7,7s2.2431641,5,5,5s5-2.2431641,5-5S14.7568359,2,12,2z"/>
	</g>
	<g>
		<path d="M19.9423828,32H4.0576172C1.8203125,32,0,30.1796875,0,27.9423828c0-6.6166992,5.3828125-12,12-12s12,5.3833008,12,12
			C24,30.1796875,22.1796875,32,19.9423828,32z M12,17.9423828c-5.5136719,0-10,4.4858398-10,10
			C2,29.0771484,2.9228516,30,4.0576172,30h15.8847656C21.0771484,30,22,29.0771484,22,27.9423828
			C22,22.4282227,17.5136719,17.9423828,12,17.9423828z"/>
	</g>
	<g>
		<path d="M20,16.9423218c-1.4129639,0-2.7589722,0.276062-4,0.7613525c4.0949097,1.6013794,7,5.5764771,7,10.2386475
			C23,29.6310425,21.6310425,31,19.9423828,31h8C29.6310425,31,31,29.6310425,31,27.9423218
			C31,21.8671875,26.0751343,16.9423218,20,16.9423218z"/>
	</g>
	<g>
		<path d="M20,1c-1.5388794,0-2.9379272,0.5843506-4,1.5368042C17.2248535,3.6353149,18,5.2251587,18,7
			s-0.7751465,3.3646851-2,4.4631958C17.0620728,12.4156494,18.4611206,13,20,13c3.3137207,0,6-2.6862793,6-6S23.3137207,1,20,1z"/>
	</g>
	<g>
		<path d="M27.9423828,32h-8c-0.5527344,0-1-0.4477539-1-1s0.4472656-1,1-1C21.0771484,30,22,29.0771484,22,27.9423828
			c0-4.1420898-2.4980469-7.7954102-6.3642578-9.3076172C15.2519531,18.4848633,15,18.1152344,15,17.7036133
			s0.2519531-0.78125,0.6357422-0.9311523C17.0439453,16.2216797,18.5126953,15.9423828,20,15.9423828
			c6.6171875,0,12,5.3833008,12,12C32,30.1796875,30.1796875,32,27.9423828,32z M23.4384766,30h4.5039063
			C29.0771484,30,30,29.0771484,30,27.9423828c0-5.5141602-4.4863281-10-10-10
			c-0.4189453,0-0.8359375,0.0268555-1.2509766,0.0800781C22.0039063,20.2197266,24,23.8857422,24,27.9423828
			C24,28.6928711,23.7949219,29.3964844,23.4384766,30z"/>
	</g>
	<g>
		<path d="M20,14c-1.7207031,0-3.3779297-0.6362305-4.6669922-1.7919922C15.1210938,12.0185547,15,11.7475586,15,11.4638672
			c0-0.2841797,0.1210938-0.5551758,0.3320313-0.7446289C16.3925781,9.7680664,17,8.4125977,17,7
			s-0.6074219-2.7680664-1.6679688-3.7192383C15.1210938,3.0913086,15,2.8203125,15,2.5361328
			c0-0.2836914,0.1210938-0.5546875,0.3330078-0.7441406C16.6220703,0.6362305,18.2792969,0,20,0c3.859375,0,7,3.1401367,7,7
			S23.859375,14,20,14z M17.4970703,11.3227539C18.2548828,11.7636719,19.1162109,12,20,12c2.7568359,0,5-2.2431641,5-5
			s-2.2431641-5-5-5c-0.8837891,0-1.7451172,0.2363281-2.5029297,0.6772461C18.4628906,3.9033203,19,5.4257813,19,7
			S18.4628906,10.0966797,17.4970703,11.3227539z"/>
	</g>
</g>
</svg>
