<?xml version="1.0" encoding="UTF-8"?>
<svg xmlns="http://www.w3.org/2000/svg" xmlns:xlink="http://www.w3.org/1999/xlink" width="24px" height="24px" viewBox="0 0 24 24" version="1.1">
<g id="surface1">
<path style=" stroke:none;fill-rule:nonzero;fill:rgb(48.627451%,70.196078%,30.196078%);fill-opacity:1;" d="M 22.898438 12 L 23.953125 9.253906 C 24.0625 8.953125 23.972656 8.605469 23.722656 8.402344 L 21.4375 6.550781 L 20.976562 3.644531 C 20.925781 3.328125 20.671875 3.074219 20.355469 3.023438 L 17.449219 2.5625 L 15.601562 0.277344 C 15.394531 0.0234375 15.046875 -0.0664062 14.75 0.046875 L 12 1.101562 L 9.253906 0.0507812 C 8.953125 -0.0664062 8.609375 0.0273438 8.402344 0.277344 L 6.550781 2.566406 L 3.648438 3.027344 C 3.328125 3.078125 3.074219 3.328125 3.027344 3.648438 L 2.5625 6.554688 L 0.277344 8.402344 C 0.0273438 8.605469 -0.0625 8.953125 0.046875 9.253906 L 1.101562 12 L 0.046875 14.75 C -0.0664062 15.046875 0.0273438 15.394531 0.277344 15.597656 L 2.5625 17.449219 L 3.027344 20.351562 C 3.074219 20.671875 3.328125 20.925781 3.648438 20.976562 L 6.550781 21.4375 L 8.402344 23.722656 C 8.605469 23.972656 8.953125 24.066406 9.253906 23.949219 L 12 22.898438 L 14.746094 23.953125 C 14.832031 23.984375 14.925781 24 15.015625 24 C 15.234375 24 15.453125 23.902344 15.601562 23.722656 L 17.449219 21.4375 L 20.355469 20.976562 C 20.671875 20.925781 20.925781 20.671875 20.976562 20.351562 L 21.4375 17.449219 L 23.722656 15.597656 C 23.972656 15.394531 24.0625 15.046875 23.953125 14.75 Z M 22.898438 12 "/>
<path style=" stroke:none;fill-rule:nonzero;fill:rgb(98.039216%,98.039216%,98.039216%);fill-opacity:1;" d="M 9.75 10.5 C 8.507812 10.5 7.5 9.492188 7.5 8.25 C 7.5 7.011719 8.507812 6 9.75 6 C 10.992188 6 12 7.011719 12 8.25 C 12 9.492188 10.992188 10.5 9.75 10.5 Z M 9.75 7.5 C 9.335938 7.5 9 7.835938 9 8.25 C 9 8.667969 9.335938 9 9.75 9 C 10.164062 9 10.5 8.667969 10.5 8.25 C 10.5 7.835938 10.164062 7.5 9.75 7.5 Z M 14.25 18 C 13.007812 18 12 16.992188 12 15.75 C 12 14.507812 13.007812 13.5 14.25 13.5 C 15.492188 13.5 16.5 14.507812 16.5 15.75 C 16.5 16.992188 15.492188 18 14.25 18 Z M 14.25 15 C 13.835938 15 13.5 15.335938 13.5 15.75 C 13.5 16.164062 13.835938 16.5 14.25 16.5 C 14.664062 16.5 15 16.164062 15 15.75 C 15 15.335938 14.664062 15 14.25 15 Z M 8.25 18 C 8.101562 18 7.945312 17.953125 7.816406 17.859375 C 7.476562 17.621094 7.398438 17.152344 7.640625 16.816406 L 15.140625 6.316406 C 15.382812 5.976562 15.851562 5.898438 16.1875 6.140625 C 16.527344 6.382812 16.601562 6.851562 16.359375 7.183594 L 8.859375 17.683594 C 8.714844 17.890625 8.484375 18 8.25 18 Z M 8.25 18 "/>
</g>
</svg>
